<svg xmlns="http://www.w3.org/2000/svg" viewBox="0 0 1200 190" role="img" aria-label="Leadville 100 elevation profile: Pipeline to Outward Bound, miles 75.1 to 78.7 of 99.9">
<title>Pipeline to Outward Bound — miles 75.1–78.7</title>
<path d="M 0.0 178.0 L 0.0 149.9 L 2.0 150.1 L 3.8 149.8 L 5.7 149.6 L 7.7 150.7 L 9.6 152.0 L 11.5 152.7 L 13.2 153.5 L 15.2 154.4 L 17.2 155.2 L 18.2 155.9 L 20.3 156.4 L 22.3 156.6 L 24.2 156.8 L 26.3 157.3 L 28.1 158.2 L 30.0 159.3 L 32.0 160.3 L 34.0 161.0 L 35.8 161.5 L 37.7 161.5 L 39.6 161.2 L 41.6 161.1 L 43.5 160.6 L 45.2 159.6 L 46.9 159.0 L 49.0 159.1 L 51.1 159.1 L 53.0 159.0 L 54.3 158.8 L 56.0 158.2 L 57.7 157.8 L 59.5 157.7 L 61.6 157.6 L 63.6 157.7 L 65.6 157.5 L 67.4 157.7 L 69.4 158.0 L 71.4 158.2 L 73.4 157.7 L 75.0 156.7 L 76.2 155.6 L 77.3 154.4 L 78.6 153.2 L 79.6 151.9 L 80.8 150.5 L 81.7 148.9 L 82.7 147.3 L 83.5 145.8 L 84.4 144.2 L 85.4 142.5 L 86.2 140.8 L 87.1 139.2 L 88.2 138.1 L 89.3 136.8 L 90.5 135.7 L 91.9 134.8 L 93.5 134.2 L 95.6 133.6 L 97.0 133.4 L 98.1 133.0 L 99.2 132.1 L 100.9 132.7 L 102.1 134.2 L 103.4 134.3 L 104.8 133.4 L 106.1 133.1 L 107.6 133.5 L 108.9 133.5 L 110.7 133.1 L 111.7 133.0 L 112.9 133.5 L 114.5 133.0 L 116.1 132.0 L 117.1 131.0 L 118.4 130.1 L 119.7 129.0 L 120.7 127.8 L 122.3 128.2 L 123.7 129.5 L 125.2 130.4 L 125.8 130.4 L 126.4 130.5 L 126.9 130.6 L 128.6 131.3 L 130.3 132.8 L 132.4 133.9 L 133.8 134.0 L 135.6 134.8 L 137.4 136.1 L 138.9 137.5 L 140.7 139.0 L 142.4 140.4 L 144.2 141.7 L 145.9 143.2 L 147.6 144.6 L 149.6 146.2 L 151.2 147.8 L 153.0 149.0 L 154.7 150.1 L 156.5 151.3 L 158.2 152.4 L 160.0 153.5 L 162.0 154.6 L 164.0 155.4 L 165.9 155.9 L 167.7 156.3 L 169.7 156.5 L 171.3 156.5 L 172.7 155.9 L 173.6 155.3 L 174.8 155.7 L 175.8 156.5 L 177.4 156.9 L 178.6 156.8 L 179.9 156.6 L 181.5 156.6 L 183.1 156.5 L 184.7 156.4 L 186.2 156.2 L 187.7 156.2 L 189.2 156.3 L 190.7 156.2 L 192.4 156.1 L 193.5 155.7 L 194.5 155.5 L 195.9 155.9 L 197.6 156.3 L 199.5 156.4 L 201.0 156.5 L 202.3 156.1 L 203.8 155.4 L 205.3 155.4 L 206.7 156.2 L 208.2 156.4 L 209.9 156.5 L 211.6 156.5 L 213.4 156.5 L 215.2 156.4 L 216.9 156.5 L 219.1 156.8 L 220.9 156.9 L 222.9 156.9 L 225.0 156.8 L 226.7 156.7 L 228.4 156.1 L 230.0 156.1 L 231.9 156.3 L 233.6 156.5 L 235.5 156.6 L 236.9 156.5 L 238.5 156.7 L 240.0 156.5 L 241.6 156.5 L 243.1 156.4 L 243.5 156.4 L 243.6 156.5 L 243.9 156.5 L 245.1 157.6 L 246.0 159.6 L 247.2 161.0 L 249.2 161.7 L 251.2 162.1 L 253.0 162.3 L 255.1 162.5 L 256.7 162.9 L 258.5 163.2 L 260.5 163.6 L 262.4 164.1 L 264.3 164.5 L 266.4 164.9 L 268.4 165.1 L 270.0 165.1 L 272.0 165.3 L 274.0 165.5 L 276.1 165.8 L 278.0 165.9 L 280.3 166.0 L 282.3 166.2 L 283.8 165.9 L 284.9 165.2 L 285.9 164.2 L 287.3 163.6 L 289.1 163.5 L 290.9 163.7 L 292.6 163.5 L 294.4 164.1 L 296.3 165.2 L 298.2 165.8 L 300.0 166.5 L 302.1 167.2 L 303.9 167.3 L 305.7 167.2 L 307.6 167.1 L 307.7 167.1 L 309.1 167.4 L 309.1 167.6 L 310.5 167.6 L 312.5 167.9 L 314.0 168.2 L 315.8 168.4 L 317.7 168.5 L 319.7 168.8 L 320.9 169.1 L 322.9 169.4 L 324.7 169.6 L 326.5 169.6 L 328.3 169.5 L 330.0 169.4 L 331.5 169.1 L 333.3 168.6 L 335.3 168.3 L 337.0 167.9 L 338.3 167.4 L 339.9 167.0 L 341.7 166.3 L 343.1 165.8 L 344.8 165.5 L 346.2 165.2 L 347.6 164.9 L 349.0 164.7 L 349.8 164.7 L 350.3 164.7 L 351.6 164.8 L 353.1 164.7 L 354.4 164.6 L 355.7 164.5 L 357.3 164.4 L 358.6 164.4 L 360.5 164.4 L 362.5 164.7 L 364.2 165.0 L 365.5 164.7 L 366.8 164.1 L 368.1 163.6 L 369.5 163.1 L 370.3 162.7 L 371.2 161.9 L 372.0 160.9 L 373.3 160.2 L 374.7 159.9 L 376.3 159.8 L 377.3 159.8 L 377.5 159.7 L 377.6 159.6 L 377.9 159.6 L 378.0 159.6 L 379.7 159.5 L 381.0 159.0 L 382.5 158.4 L 384.0 157.7 L 385.4 157.2 L 386.9 157.2 L 388.6 157.7 L 389.9 158.1 L 390.9 157.8 L 392.2 157.5 L 393.5 157.1 L 394.7 156.5 L 395.7 155.7 L 396.7 154.8 L 397.7 153.9 L 398.9 153.3 L 400.0 152.8 L 401.5 152.3 L 402.8 152.2 L 404.6 152.5 L 406.0 152.4 L 407.5 152.0 L 408.9 151.8 L 409.8 151.4 L 410.6 150.6 L 411.6 149.9 L 412.5 148.9 L 413.9 148.3 L 415.1 147.7 L 415.9 146.6 L 416.8 145.3 L 417.8 144.3 L 418.8 143.5 L 419.9 142.6 L 420.9 141.7 L 422.3 141.2 L 423.5 140.7 L 425.1 140.6 L 426.5 141.0 L 427.4 142.3 L 428.2 142.6 L 428.8 141.7 L 429.6 141.2 L 430.8 140.7 L 431.7 139.4 L 432.5 138.3 L 433.2 137.4 L 434.1 136.4 L 435.0 135.4 L 436.1 134.3 L 437.1 133.9 L 438.4 134.9 L 439.5 136.6 L 440.7 137.7 L 442.1 137.7 L 443.3 137.4 L 444.1 137.0 L 445.1 136.6 L 446.0 136.0 L 446.6 135.1 L 447.5 134.9 L 448.8 135.5 L 449.8 136.1 L 451.0 137.0 L 452.2 138.8 L 453.5 140.1 L 454.6 141.1 L 455.5 142.5 L 456.6 144.1 L 457.6 145.9 L 458.6 147.7 L 459.4 149.5 L 460.1 151.3 L 461.1 152.5 L 462.3 153.5 L 463.3 154.3 L 464.4 155.2 L 465.2 155.8 L 466.3 156.0 L 467.3 156.3 L 468.4 157.2 L 469.5 158.3 L 470.9 159.8 L 471.9 161.8 L 473.0 163.8 L 474.3 165.6 L 475.4 167.5 L 476.4 169.3 L 477.4 171.3 L 478.4 173.3 L 479.5 174.7 L 480.5 175.7 L 481.3 176.4 L 481.4 176.4 L 481.7 176.9 L 481.7 177.3 L 481.8 177.2 L 481.8 177.0 L 481.8 176.8 L 481.8 176.8 L 481.8 176.8 L 483.5 177.1 L 484.8 177.4 L 486.2 177.6 L 487.9 177.6 L 489.1 177.4 L 490.6 177.6 L 492.7 177.8 L 494.3 177.8 L 495.8 177.8 L 497.5 177.9 L 499.2 178.0 L 500.8 178.0 L 502.1 177.9 L 503.3 177.4 L 504.3 176.5 L 505.3 175.7 L 506.2 174.8 L 506.9 173.5 L 507.4 172.3 L 507.8 171.1 L 508.4 169.7 L 508.8 168.2 L 509.2 166.9 L 509.8 165.5 L 510.6 164.3 L 511.1 163.0 L 511.8 161.6 L 512.5 160.3 L 513.1 159.1 L 513.8 157.9 L 514.2 156.5 L 514.9 155.3 L 515.3 154.1 L 515.9 152.8 L 516.3 151.4 L 516.9 150.1 L 517.5 148.8 L 518.1 147.7 L 518.7 146.6 L 519.4 145.4 L 519.9 144.1 L 520.4 142.8 L 520.9 141.4 L 521.4 140.1 L 521.9 138.8 L 522.4 137.5 L 522.9 136.1 L 523.3 134.6 L 523.8 133.1 L 524.3 131.7 L 524.7 130.5 L 525.2 129.3 L 525.8 127.9 L 526.4 126.5 L 526.9 125.3 L 527.8 124.3 L 528.7 123.7 L 529.5 122.9 L 530.2 121.9 L 530.9 120.9 L 531.4 120.0 L 532.2 119.0 L 532.7 117.9 L 533.2 116.9 L 534.0 115.8 L 534.7 114.7 L 535.4 113.6 L 536.0 112.4 L 536.7 111.3 L 537.2 110.0 L 538.0 108.8 L 538.6 107.9 L 539.2 106.8 L 539.8 105.7 L 540.4 104.6 L 540.9 103.3 L 541.5 102.0 L 542.0 100.8 L 542.5 99.8 L 543.2 98.7 L 543.6 97.6 L 544.3 96.6 L 545.0 95.4 L 545.4 94.9 L 545.4 94.6 L 545.4 94.5 L 545.8 94.0 L 546.2 92.9 L 546.8 91.7 L 547.3 90.6 L 547.8 89.5 L 548.3 88.4 L 548.8 87.1 L 549.3 85.8 L 549.7 84.5 L 550.2 83.4 L 550.7 82.1 L 551.1 80.9 L 551.7 79.8 L 552.1 78.6 L 552.5 77.4 L 552.8 76.0 L 553.4 74.7 L 553.7 74.0 L 554.4 74.7 L 555.3 76.4 L 556.2 78.3 L 557.3 80.2 L 558.2 82.2 L 559.0 84.2 L 559.8 86.2 L 560.4 88.0 L 561.2 89.8 L 561.7 91.7 L 562.4 93.9 L 563.2 96.0 L 564.0 97.7 L 564.6 99.3 L 565.3 101.0 L 566.1 102.7 L 566.7 104.2 L 567.4 105.9 L 568.3 107.6 L 569.0 109.3 L 569.7 111.1 L 570.2 112.6 L 571.1 113.7 L 571.7 115.2 L 572.3 117.0 L 572.7 118.7 L 573.4 120.5 L 574.1 122.5 L 574.5 124.6 L 575.2 126.6 L 575.5 128.2 L 576.0 129.8 L 576.7 131.4 L 577.4 133.4 L 578.1 135.5 L 578.6 137.6 L 579.2 139.8 L 579.8 141.7 L 580.2 143.6 L 580.9 145.8 L 581.4 148.0 L 582.2 149.4 L 583.1 149.4 L 584.1 149.3 L 585.0 149.4 L 586.2 149.7 L 587.5 149.8 L 588.5 149.7 L 589.5 149.5 L 590.4 149.3 L 591.3 149.0 L 592.4 148.8 L 593.5 148.6 L 594.6 148.4 L 595.8 148.1 L 597.0 148.1 L 598.4 147.9 L 599.3 147.1 L 600.0 146.1 L 600.5 145.1 L 601.1 144.1 L 601.7 143.0 L 602.3 142.2 L 603.0 141.3 L 603.6 140.5 L 604.4 139.6 L 605.1 139.0 L 606.1 138.6 L 607.0 138.4 L 608.3 138.4 L 609.3 138.3 L 610.0 138.1 L 611.1 137.5 L 612.4 136.9 L 613.1 136.4 L 614.2 136.8 L 615.2 137.7 L 616.2 138.6 L 617.3 139.2 L 618.1 139.8 L 619.5 140.4 L 620.8 141.0 L 622.0 141.9 L 623.1 143.1 L 624.3 144.0 L 625.4 144.6 L 626.9 145.2 L 627.4 145.7 L 627.5 146.0 L 627.5 146.0 L 627.5 145.8 L 627.5 145.7 L 627.5 145.6 L 627.7 145.5 L 627.8 145.5 L 628.0 145.5 L 628.0 145.5 L 628.6 145.5 L 630.0 145.2 L 630.7 144.7 L 631.9 144.2 L 632.7 143.4 L 633.3 142.5 L 633.9 141.6 L 635.0 141.0 L 635.9 140.5 L 637.0 139.9 L 637.9 139.3 L 639.0 138.8 L 639.9 138.0 L 640.7 137.0 L 641.4 136.2 L 642.3 135.7 L 643.4 136.0 L 644.7 136.6 L 645.7 137.0 L 647.0 137.5 L 648.2 137.7 L 649.3 137.9 L 650.5 138.4 L 651.6 139.3 L 652.4 140.3 L 653.2 141.4 L 654.2 142.8 L 655.1 145.6 L 655.9 147.9 L 656.7 147.7 L 657.7 148.2 L 658.7 148.3 L 659.9 148.3 L 660.8 148.5 L 661.8 149.0 L 662.6 149.0 L 663.6 149.2 L 664.8 149.5 L 665.7 149.7 L 666.8 149.9 L 667.9 150.0 L 669.1 149.9 L 670.3 149.7 L 671.4 149.8 L 672.6 150.1 L 673.8 150.4 L 674.3 149.5 L 674.7 148.0 L 675.1 146.6 L 675.6 145.3 L 676.0 143.9 L 676.3 142.4 L 676.7 140.8 L 677.1 139.4 L 677.5 137.9 L 677.9 136.4 L 678.3 135.1 L 678.7 133.7 L 679.1 132.4 L 679.6 131.0 L 680.1 129.6 L 680.5 128.2 L 680.9 127.0 L 681.2 125.8 L 681.6 124.6 L 681.9 123.3 L 682.4 122.0 L 682.8 120.7 L 683.1 119.5 L 683.5 118.3 L 684.0 117.0 L 684.4 115.7 L 684.8 114.6 L 685.5 113.9 L 686.0 113.1 L 686.4 112.1 L 686.8 111.0 L 687.3 109.8 L 687.8 108.7 L 688.3 107.8 L 688.9 106.8 L 689.3 105.8 L 689.8 104.9 L 690.3 103.8 L 690.9 102.6 L 691.4 101.5 L 691.8 100.5 L 692.3 99.4 L 692.9 98.4 L 693.4 97.5 L 693.9 96.4 L 694.3 95.2 L 694.7 93.7 L 695.1 92.3 L 695.6 91.1 L 696.0 90.0 L 696.5 88.9 L 696.9 87.7 L 697.4 86.6 L 697.8 85.4 L 698.3 84.2 L 698.9 83.1 L 699.4 82.0 L 699.9 80.8 L 700.3 79.8 L 701.0 78.5 L 701.5 77.5 L 702.0 76.5 L 702.5 75.3 L 703.1 74.3 L 703.6 74.6 L 704.2 76.2 L 704.7 77.8 L 705.1 79.5 L 705.9 81.2 L 706.6 83.0 L 707.5 85.1 L 708.2 87.0 L 708.9 88.7 L 709.7 90.7 L 710.5 92.6 L 711.3 94.1 L 711.4 94.8 L 711.4 94.8 L 711.5 95.2 L 712.2 96.1 L 713.1 97.3 L 713.7 98.7 L 714.2 99.9 L 714.8 101.2 L 715.5 102.7 L 716.2 104.4 L 717.1 106.2 L 717.8 107.6 L 718.6 108.8 L 719.3 110.1 L 720.2 111.8 L 721.3 113.4 L 722.4 114.9 L 723.3 116.4 L 724.3 117.9 L 725.0 119.2 L 725.7 120.4 L 726.6 121.8 L 727.9 123.0 L 728.6 123.9 L 729.6 125.0 L 730.4 126.6 L 731.2 128.4 L 731.9 130.3 L 732.8 132.3 L 733.4 134.3 L 734.1 136.4 L 734.7 138.3 L 735.5 140.2 L 736.3 142.1 L 736.9 143.8 L 737.8 145.5 L 738.8 147.5 L 739.6 149.4 L 740.2 151.2 L 741.0 153.2 L 741.8 154.7 L 742.5 156.1 L 743.6 158.1 L 744.6 160.1 L 745.3 161.8 L 746.2 163.4 L 746.8 165.2 L 747.4 167.1 L 748.2 169.0 L 748.9 171.0 L 749.8 172.8 L 751.4 174.2 L 752.8 175.7 L 754.3 176.7 L 755.5 177.3 L 756.8 177.6 L 757.7 177.8 L 759.1 177.7 L 760.4 177.8 L 761.8 177.9 L 763.4 178.0 L 765.1 178.0 L 766.4 177.8 L 767.8 177.7 L 769.6 178.0 L 770.6 177.8 L 772.4 177.7 L 774.0 177.5 L 774.3 177.7 L 774.4 178.0 L 774.4 177.9 L 774.5 177.9 L 774.5 177.8 L 774.5 177.7 L 774.5 177.6 L 774.5 177.5 L 774.5 177.4 L 774.5 177.4 L 774.7 177.4 L 774.9 177.4 L 775.0 177.4 L 775.7 177.1 L 776.3 176.6 L 777.2 175.9 L 778.0 174.9 L 778.5 173.8 L 779.1 172.7 L 779.8 171.4 L 780.4 170.1 L 781.0 169.0 L 781.8 167.8 L 782.5 166.6 L 783.2 165.8 L 783.7 164.9 L 784.2 163.8 L 784.7 162.8 L 785.2 161.7 L 785.8 160.8 L 786.4 160.0 L 787.4 159.0 L 788.3 158.1 L 789.2 157.4 L 790.2 157.0 L 791.3 156.6 L 792.2 155.9 L 792.9 155.1 L 793.6 154.7 L 794.4 154.2 L 795.2 153.6 L 796.0 152.8 L 796.5 151.7 L 797.0 150.4 L 797.7 149.1 L 798.3 147.9 L 799.0 146.7 L 799.6 145.6 L 800.3 144.4 L 801.2 143.2 L 802.0 142.0 L 802.7 141.2 L 803.7 140.5 L 804.3 139.5 L 804.9 138.5 L 805.5 137.4 L 806.1 136.6 L 807.3 136.2 L 807.8 135.6 L 808.7 135.1 L 809.8 135.2 L 810.5 136.1 L 811.4 136.6 L 812.5 137.0 L 813.4 137.6 L 814.5 138.0 L 815.6 138.0 L 816.5 137.3 L 817.2 136.3 L 817.8 135.3 L 818.3 134.3 L 819.1 133.8 L 820.1 134.1 L 821.3 135.2 L 822.5 136.3 L 823.6 137.8 L 824.5 139.5 L 825.5 140.8 L 826.6 141.1 L 827.4 141.8 L 828.0 142.6 L 828.8 142.4 L 829.3 141.2 L 830.2 140.7 L 831.8 140.6 L 833.4 140.8 L 834.8 141.2 L 836.1 142.0 L 837.8 143.2 L 839.1 144.5 L 840.5 146.0 L 841.7 146.9 L 842.9 147.5 L 844.3 148.6 L 845.7 149.7 L 847.0 150.6 L 848.0 150.9 L 849.3 151.0 L 850.6 151.3 L 851.9 151.4 L 852.9 151.4 L 854.1 151.6 L 855.4 152.0 L 856.6 152.6 L 858.1 153.3 L 859.4 154.3 L 860.6 155.3 L 861.7 156.1 L 862.8 156.7 L 863.8 157.1 L 864.9 157.4 L 866.0 157.7 L 867.1 157.5 L 868.3 157.1 L 869.4 156.8 L 870.6 156.9 L 872.1 157.3 L 873.6 158.0 L 874.8 158.6 L 875.9 159.0 L 877.6 159.2 L 878.1 159.3 L 878.1 159.3 L 878.5 159.3 L 879.4 159.2 L 880.4 159.2 L 881.7 159.6 L 883.1 160.2 L 884.5 161.5 L 885.7 162.5 L 886.9 163.0 L 888.3 163.5 L 889.9 164.1 L 891.2 164.5 L 892.7 164.5 L 894.0 164.2 L 895.5 164.0 L 897.1 164.0 L 898.9 163.9 L 900.6 164.0 L 902.2 164.1 L 903.7 164.2 L 905.5 164.1 L 905.7 164.1 L 905.7 178.0 Z" fill="rgba(0,0,0,0.40)"/>
<path d="M 905.7 178.0 L 905.7 164.1 L 907.1 164.1 L 908.4 164.5 L 909.6 164.9 L 911.1 165.3 L 912.6 165.8 L 914.0 166.3 L 915.6 166.8 L 916.9 167.3 L 918.1 167.7 L 919.5 168.1 L 920.7 168.1 L 921.8 168.2 L 923.0 168.6 L 924.4 168.9 L 925.8 169.3 L 927.5 169.6 L 928.9 169.7 L 930.5 169.8 L 931.9 169.8 L 932.9 169.7 L 934.3 169.5 L 935.8 169.3 L 937.3 169.1 L 938.6 169.0 L 940.6 168.9 L 942.3 168.9 L 943.5 169.1 L 944.9 169.0 L 946.7 168.9 L 947.2 168.7 L 948.0 168.4 L 948.7 168.3 L 948.7 178.0 Z" fill="#000000"/>
<path d="M 948.7 178.0 L 948.7 168.3 L 949.2 168.4 L 950.2 168.7 L 951.8 168.7 L 953.4 168.4 L 954.9 167.8 L 956.0 167.3 L 957.2 166.9 L 958.5 166.5 L 960.0 166.0 L 961.1 165.1 L 962.7 164.1 L 963.9 163.9 L 965.5 164.1 L 966.7 163.8 L 967.9 163.5 L 969.9 164.0 L 971.2 165.3 L 972.5 166.3 L 973.9 166.5 L 975.1 166.4 L 976.2 166.5 L 977.8 166.5 L 979.0 166.4 L 980.3 166.2 L 981.7 165.9 L 982.9 165.7 L 984.4 165.4 L 985.6 165.3 L 987.3 165.3 L 988.9 165.1 L 990.5 164.7 L 991.7 164.5 L 993.1 164.3 L 994.3 164.1 L 995.5 164.0 L 996.9 163.8 L 998.0 163.6 L 999.2 163.5 L 1000.4 163.3 L 1001.9 163.0 L 1003.4 162.9 L 1004.8 162.8 L 1006.2 162.6 L 1007.5 162.3 L 1008.7 162.0 L 1009.5 161.6 L 1010.1 160.5 L 1010.7 159.4 L 1011.0 158.3 L 1011.4 157.3 L 1012.1 157.0 L 1012.6 156.9 L 1012.7 156.7 L 1013.0 156.4 L 1013.7 155.9 L 1013.8 155.9 L 1014.6 155.6 L 1015.5 155.5 L 1016.5 155.5 L 1017.5 155.7 L 1018.7 156.1 L 1019.8 156.3 L 1020.9 155.9 L 1022.3 155.8 L 1023.6 156.2 L 1024.8 156.7 L 1026.3 157.2 L 1027.6 157.7 L 1028.8 158.4 L 1030.3 158.9 L 1031.5 159.0 L 1032.7 158.4 L 1033.8 157.7 L 1035.3 157.5 L 1036.0 157.2 L 1036.7 156.5 L 1037.5 155.9 L 1038.5 155.3 L 1039.5 154.9 L 1040.7 154.5 L 1042.1 154.3 L 1043.4 154.8 L 1044.7 155.2 L 1045.8 155.1 L 1047.0 154.5 L 1048.1 154.3 L 1049.7 154.4 L 1050.9 154.5 L 1052.3 154.5 L 1053.5 154.6 L 1054.8 154.5 L 1055.7 154.1 L 1056.4 153.7 L 1057.2 153.1 L 1058.1 152.3 L 1059.3 151.7 L 1060.2 150.8 L 1061.2 149.8 L 1062.2 148.8 L 1063.1 147.8 L 1064.0 147.0 L 1064.9 146.1 L 1065.9 145.5 L 1067.0 145.0 L 1067.9 144.2 L 1068.8 143.2 L 1069.8 142.2 L 1070.9 141.4 L 1072.0 140.8 L 1073.0 140.1 L 1073.8 139.0 L 1074.5 137.9 L 1075.0 136.8 L 1075.5 135.8 L 1076.1 134.7 L 1076.7 133.4 L 1077.5 132.3 L 1078.4 132.0 L 1079.1 132.5 L 1080.3 133.3 L 1081.0 133.1 L 1081.9 133.0 L 1082.8 133.5 L 1083.6 133.6 L 1084.7 133.8 L 1085.8 134.2 L 1086.9 134.9 L 1087.8 135.7 L 1088.7 136.6 L 1089.5 137.4 L 1090.4 138.0 L 1091.1 139.0 L 1091.7 140.3 L 1092.4 141.6 L 1093.1 142.7 L 1093.7 143.7 L 1094.5 145.1 L 1095.5 146.6 L 1096.2 147.9 L 1096.8 149.0 L 1097.6 150.0 L 1098.4 150.9 L 1099.8 151.9 L 1100.9 153.1 L 1101.9 153.9 L 1102.6 154.5 L 1103.8 155.4 L 1104.9 156.2 L 1106.3 156.6 L 1107.7 156.6 L 1108.5 156.4 L 1109.9 156.6 L 1111.1 156.8 L 1112.0 156.8 L 1113.3 157.0 L 1114.6 157.5 L 1115.8 157.5 L 1116.8 157.2 L 1118.2 157.4 L 1119.6 157.6 L 1121.1 157.5 L 1122.3 157.9 L 1123.6 158.3 L 1125.0 158.3 L 1126.2 158.4 L 1127.4 158.5 L 1128.7 158.6 L 1130.0 158.5 L 1130.9 158.4 L 1132.1 158.9 L 1133.4 159.5 L 1134.4 160.0 L 1135.7 160.4 L 1137.0 160.5 L 1138.5 160.6 L 1139.7 160.9 L 1141.3 161.1 L 1142.4 161.0 L 1143.6 161.1 L 1144.7 161.7 L 1146.0 162.1 L 1147.4 162.4 L 1148.5 162.6 L 1149.7 162.9 L 1150.8 163.1 L 1152.0 163.1 L 1153.1 163.3 L 1154.2 163.6 L 1155.3 163.8 L 1156.6 164.1 L 1157.9 164.3 L 1158.8 164.5 L 1159.9 164.6 L 1160.9 164.4 L 1161.5 163.8 L 1162.2 163.0 L 1162.9 162.3 L 1163.6 161.6 L 1164.4 161.1 L 1165.3 160.8 L 1166.5 160.7 L 1167.6 160.5 L 1168.7 160.3 L 1169.9 160.2 L 1171.3 160.4 L 1172.4 160.4 L 1173.5 160.0 L 1174.4 159.6 L 1175.3 159.2 L 1176.3 158.7 L 1177.1 158.1 L 1178.2 157.9 L 1179.1 157.8 L 1180.2 157.6 L 1181.3 157.4 L 1182.5 157.0 L 1183.5 156.5 L 1184.6 156.0 L 1185.7 155.5 L 1186.8 155.1 L 1187.6 154.6 L 1188.4 154.1 L 1189.3 153.6 L 1190.4 153.3 L 1191.3 152.7 L 1192.3 151.8 L 1193.2 151.0 L 1193.9 150.5 L 1194.8 150.2 L 1195.8 150.3 L 1197.3 150.9 L 1198.7 150.7 L 1200.0 150.3 L 1200.0 178.0 Z" fill="rgba(0,0,0,0.16)"/>
<line x1="0" y1="178.0" x2="1200" y2="178.0" stroke="rgba(0,0,0,0.25)" stroke-width="1.5"/>
<line x1="948.7" y1="60.0" x2="948.7" y2="178.0" stroke="#000" stroke-width="2"/>
<circle cx="948.7" cy="168.3" r="7" fill="#000" stroke="#fafaf9" stroke-width="3"/>
<text x="16.0" y="48.0" text-anchor="start" font-family="system-ui, -apple-system, 'Segoe UI', Helvetica, Arial, sans-serif" letter-spacing="-0.5" font-size="36" font-weight="700" fill="#000">Pipeline to Outward Bound · Miles 75.1–78.7</text>
</svg>
